<mxfile host="app.diagrams.net" modified="2024-09-09T01:35:23.269Z" agent="Mozilla/5.0 (Windows NT 10.0; Win64; x64) AppleWebKit/537.36 (KHTML, like Gecko) Chrome/128.0.0.0 Safari/537.36" version="24.7.1" etag="8zeUEoU3-7h-yH-T4D1t" type="github">
  <diagram name="Page-1" id="z5ucdvzZtmPDOwXWxVIA">
    <mxGraphModel>
      <root>
        <mxCell id="0" />
        <mxCell id="1" parent="0" />
      </root>
    </mxGraphModel>
  </diagram>
</mxfile>
